<?xml version="1.0" encoding="iso-8859-1"?>
<!-- Generator: Adobe Illustrator 19.0.0, SVG Export Plug-In . SVG Version: 6.00 Build 0)  -->
<svg version="1.1" id="Layer_1" xmlns="http://www.w3.org/2000/svg" xmlns:xlink="http://www.w3.org/1999/xlink" x="0px" y="0px"
	 viewBox="0 0 511.999 511.999" style="enable-background:new 0 0 511.999 511.999;" xml:space="preserve">
<g>
	<g>
		<path d="M418.805,160.389c-14.372-30.343-45.354-49.949-78.928-49.949h-8.186V40.572H180.31v69.868h-8.186
			c-33.575,0-64.556,19.606-78.928,49.949L0,357.133l100.785,50.392l9.656-19.31v42.455c0,22.473,18.283,40.756,40.756,40.756
			h209.605c22.473,0,40.756-18.283,40.756-40.756v-42.455l9.656,19.31l100.785-50.392L418.805,160.389z M215.243,75.506h81.513
			v34.934h-81.513V75.506z M366.625,430.671c-0.001,3.209-2.613,5.821-5.824,5.821H151.197c-3.21,0-5.822-2.612-5.822-5.822v-75.377
			l25.227,13.762l42.695-23.289l42.696,23.289l42.696-23.289l42.701,23.289l25.234-13.763V430.671z M366.624,240.231v75.267
			L341.39,329.26l-42.702-23.289l-42.695,23.289l-42.696-23.289l-42.695,23.289l-25.227-13.762v-75.268L85.162,360.657
			l-38.952-19.476l78.554-165.838c8.623-18.205,27.213-29.969,47.357-29.969h167.755c20.144,0,38.734,11.763,47.357,29.969
			l78.555,165.838l-38.952,19.476L366.624,240.231z"/>
	</g>
</g>
<g>
</g>
<g>
</g>
<g>
</g>
<g>
</g>
<g>
</g>
<g>
</g>
<g>
</g>
<g>
</g>
<g>
</g>
<g>
</g>
<g>
</g>
<g>
</g>
<g>
</g>
<g>
</g>
<g>
</g>
</svg>
